<?xml version="1.0" standalone="no"?>
<!DOCTYPE svg PUBLIC "-//W3C//DTD SVG 20010904//EN"
 "http://www.w3.org/TR/2001/REC-SVG-20010904/DTD/svg10.dtd">
<svg version="1.0" xmlns="http://www.w3.org/2000/svg"
 width="200.000000pt" height="200.000000pt" viewBox="0 0 200.000000 200.000000"
 preserveAspectRatio="xMidYMid meet">
<metadata>
Created by potrace 1.11, written by Peter Selinger 2001-2013
</metadata>
<g transform="translate(0.000000,200.000000) scale(0.100000,-0.100000)"
fill="#000000" stroke="none">
<path d="M845 1962 c-20 -17 -20 -28 -20 -504 0 -267 2 -488 5 -491 3 -2 88
-27 190 -57 102 -29 203 -58 225 -65 22 -7 121 -36 220 -65 99 -28 208 -60
241 -71 101 -33 112 -33 139 -3 15 16 25 39 26 58 2 124 0 928 -3 931 -1 1
-50 16 -108 33 -58 17 -277 80 -487 141 -210 61 -388 111 -395 111 -7 -1 -22
-8 -33 -18z"/>
<path d="M639 1897 c-118 -108 -224 -203 -240 -217 -9 -9 -61 -57 -116 -107
-54 -50 -110 -102 -125 -115 l-28 -25 0 -490 0 -490 25 -11 c46 -21 28 -33
230 157 39 36 127 118 195 181 69 63 136 126 151 140 l26 25 0 489 0 488 -24
9 c-38 14 -45 11 -94 -34z"/>
<path d="M770 869 c-19 -18 -69 -64 -111 -103 -42 -39 -123 -114 -180 -166
-227 -209 -234 -217 -230 -270 1 -11 26 -23 79 -38 42 -13 120 -36 172 -52 52
-16 240 -72 418 -125 l323 -96 37 32 c20 17 66 59 102 93 36 34 121 114 190
177 261 243 242 222 238 260 l-3 34 -180 51 c-99 29 -315 91 -480 139 -165 49
-309 90 -320 92 -12 2 -34 -9 -55 -28z"/>
</g>
</svg>
